<svg width="115" height="171" viewBox="0 0 115 171" fill="none" xmlns="http://www.w3.org/2000/svg">
<path d="M73.4662 90.8337C73.4662 88.6025 63.1406 86.7974 50.3964 86.7974C37.6522 86.7974 27.3267 88.6025 27.3267 90.8337C27.3267 91.3813 27.9778 91.9086 29.1251 92.3954C32.629 93.8558 40.8461 94.8699 50.4275 94.8699C63.1716 94.8699 73.4972 93.0648 73.4972 90.8337H73.4662Z" stroke="#DDA953" stroke-width="2" stroke-miterlimit="10"/>
<path d="M28.66 92.3955C34.9855 118.053 -2.00672 120.345 2.02429 147.707C2.02429 147.707 2.73747 165.374 40.0708 169.795C60.2569 171.073 119.296 167.382 93.7453 127.931C89.3732 123.895 68.3499 106.634 73.0321 92.3955" stroke="#DDA953" stroke-width="2" stroke-miterlimit="10"/>
<path d="M39.3577 147.018C39.3577 147.018 51.5127 113.368 61.4042 58.8882" stroke="#DDA953" stroke-width="2" stroke-miterlimit="10"/>
<path d="M56.4119 84.2214C56.4119 84.2214 81.3111 70.2667 86.6445 72.8224C86.6445 72.8224 90.9235 76.453 86.6445 78.3596" stroke="#DDA953" stroke-width="2" stroke-miterlimit="10"/>
<path d="M47.8848 86.8175C47.8848 86.8175 3.07855 77.7105 6.64444 65.8653C6.64444 65.8653 13.7452 60.0441 32.5979 68.4209C32.5979 68.4209 51.9778 79.1303 55.7918 86.8175" stroke="#DDA953" stroke-width="2" stroke-miterlimit="10"/>
<path d="M65.335 36.6703C70.0876 34.3183 72.0725 30.7966 69.7683 28.8045C67.4642 26.8123 61.7436 27.1041 56.991 29.4561C52.2384 31.8082 50.2535 35.3298 52.5576 37.3219C54.8618 39.314 60.5824 39.0223 65.335 36.6703Z" stroke="#DDA953" stroke-width="2" stroke-miterlimit="10"/>
<path d="M51.4555 29.9306C55.4152 27.3405 52.323 21.1183 44.5488 16.033C36.7747 10.9477 27.2624 8.92501 23.3027 11.5152C19.343 14.1053 22.4352 20.3275 30.2094 25.4128C37.9835 30.4981 47.4958 32.5208 51.4555 29.9306Z" stroke="#DDA953" stroke-width="2" stroke-miterlimit="10"/>
<path d="M32.5104 44.2201C43.4066 43.2615 51.6346 39.5413 50.8882 35.911C50.1417 32.2806 40.7035 30.1148 29.8073 31.0734C18.9111 32.032 10.683 35.752 11.4295 39.3824C12.1759 43.0128 21.6142 45.1787 32.5104 44.2201Z" stroke="#DDA953" stroke-width="2" stroke-miterlimit="10"/>
<path d="M60.2524 27.182C65.7459 26.4711 68.4696 20.1757 66.336 13.1208C64.2024 6.06583 58.0195 0.922908 52.526 1.63377C47.0325 2.34463 44.3089 8.64008 46.4424 15.695C48.576 22.75 54.759 27.8928 60.2524 27.182Z" stroke="#DDA953" stroke-width="2" stroke-miterlimit="10"/>
<path d="M60.5403 55.0481C63.9541 48.2119 62.4063 41.748 57.0832 40.6106C51.7601 39.4732 44.6774 44.093 41.2635 50.9291C37.8497 57.7653 39.3974 64.2292 44.7205 65.3666C50.0436 66.504 57.1264 61.8843 60.5403 55.0481Z" stroke="#DDA953" stroke-width="2" stroke-miterlimit="10"/>
<path d="M90.3817 58.3125C95.0941 56.3336 94.0992 49.8234 88.1596 43.7715C82.22 37.7196 73.5849 34.4179 68.8726 36.3968C64.1602 38.3757 65.155 44.886 71.0946 50.9378C77.0341 56.9897 85.6693 60.2915 90.3817 58.3125Z" stroke="#DDA953" stroke-width="2" stroke-miterlimit="10"/>
<path d="M93.3732 39.7006C104.368 39.7006 113.28 36.7311 113.28 33.0681C113.28 29.405 104.368 26.4355 93.3732 26.4355C82.3789 26.4355 73.4662 29.405 73.4662 33.0681C73.4662 36.7311 82.3789 39.7006 93.3732 39.7006Z" stroke="#DDA953" stroke-width="2" stroke-miterlimit="10"/>
<path d="M88.7672 19.5955C95.0008 13.6715 96.3147 7.18553 91.7019 5.10865C87.0891 3.03177 78.2963 6.15046 72.0627 12.0744C65.8291 17.9984 64.5153 24.4844 69.1281 26.5613C73.7409 28.6382 82.5336 25.5195 88.7672 19.5955Z" stroke="#DDA953" stroke-width="2" stroke-miterlimit="10"/>
</svg>
