<svg width="111" height="99" viewBox="0 0 111 99" fill="none" xmlns="http://www.w3.org/2000/svg">
<g clip-path="url(#clip0_0_148)">
<path d="M70.8344 48.9343C70.8344 48.9343 52.505 29.5815 34.105 34.8502C33.2192 35.1024 32.3277 35.4044 31.4428 35.7829C30.5097 36.1811 29.586 36.6308 28.6689 37.157C28.6689 37.157 8.94252 41.8453 5.21938 62.2647C5.21938 62.2647 1.21115 75.6614 17.7341 83.755C17.7341 83.755 32.0375 93.059 54.0005 87.0109C67.4151 83.3182 100.889 56.2002 103.964 45.7505C104.297 48.0597 111.252 31.643 94.9074 18.4975C82.7533 8.73222 78.9851 10.3714 69.0075 11.7057C57.5701 13.2267 43.8239 24.2502 43.8239 24.2502C43.8239 24.2502 37.3315 30.4489 37.5835 32.7994" stroke="#DDA953" stroke-width="2" stroke-miterlimit="10"/>
<path d="M16.869 54.459C16.869 54.459 39.8746 48.1261 51.2517 71.4045" stroke="#DDA953" stroke-width="2" stroke-miterlimit="10"/>
<path d="M56.8193 15.9168C56.8193 15.9168 82.6612 14.5005 90.8608 37.9966" stroke="#DDA953" stroke-width="2" stroke-miterlimit="10"/>
<path d="M74.1303 38.5603C75.3389 38.6982 75.7094 35.5861 74.4857 35.4464C73.262 35.3068 72.9066 38.4206 74.1303 38.5603Z" fill="#DDAA53"/>
<path d="M55.3096 54.3545C56.5182 54.4924 56.8887 51.3803 55.665 51.2406C54.4413 51.1009 54.0859 54.2148 55.3096 54.3545Z" fill="#DDAA53"/>
</g>
<defs>
<clipPath id="clip0_0_148">
<rect width="100.492" height="87.7285" fill="white" transform="translate(10.6329 0.349609) rotate(6.51102)"/>
</clipPath>
</defs>
</svg>
