<svg width="152" height="82" viewBox="0 0 152 82" fill="none" xmlns="http://www.w3.org/2000/svg">
<path d="M3.36817 66.6737C3.36817 66.6737 3.34497 37.5336 25.6777 37.9106C25.6777 37.9106 51.3154 45.0876 49.9983 76.521C49.6902 83.6928 45.1141 68.3486 22.3157 73.3626C22.3157 73.3626 6.11749 76.512 3.38434 66.6728L3.36817 66.6737Z" stroke="#DDA953" stroke-width="2" stroke-miterlimit="10"/>
<path d="M25.0929 38.828C25.0929 38.828 34.6007 21.4642 43.8535 27.8881C43.8535 27.8881 72.3998 33.3088 62.0117 76.7834C62.0117 76.7834 52.7676 79.5712 46.2114 77.6049" stroke="#DDA953" stroke-width="2" stroke-miterlimit="10"/>
<path d="M38.5757 26.4905C38.5757 26.4905 49.5385 8.41566 66.2533 15.2039C66.2533 15.2039 79.7541 17.5616 78.095 28.3814" stroke="#DDA953" stroke-width="2" stroke-miterlimit="10"/>
<path d="M62.0111 76.7663C62.0111 76.7663 93.3972 79.7322 108.574 71.2858C108.574 71.2858 124.277 58.6156 118.488 33.0355C118.488 33.0355 110.426 6.78784 100.004 6.56065C100.004 6.56065 73.9964 -3.35579 61.9813 13.5031" stroke="#DDA953" stroke-width="2" stroke-miterlimit="10"/>
<path d="M113.691 65.2356C113.691 65.2356 120.245 66.8343 129.486 58.6965C129.486 58.6965 144.306 15.6269 127.22 15.1108C127.22 15.1108 116.386 11.0262 107.57 11.1168" stroke="#DDA953" stroke-width="2" stroke-miterlimit="10"/>
<path d="M129.487 58.6952C129.487 58.6952 151.55 53.8866 149.887 36.2509C149.887 36.2509 152.444 30.8514 134.607 21.4967" stroke="#DDA953" stroke-width="2" stroke-miterlimit="10"/>
</svg>
