<svg width="97" height="92" viewBox="0 0 97 92" fill="none" xmlns="http://www.w3.org/2000/svg">
<path d="M48.5948 90.3967C74.1817 90.3967 94.924 70.5232 94.924 46.008C94.924 21.4929 74.1817 1.61938 48.5948 1.61938C23.0078 1.61938 2.2655 21.4929 2.2655 46.008C2.2655 70.5232 23.0078 90.3967 48.5948 90.3967Z" stroke="#DDA953" stroke-width="2" stroke-miterlimit="10"/>
<path d="M24.8704 18.17C24.8704 18.17 43.1815 2.76922 66.8725 14.9635" stroke="#DDA953" stroke-width="2" stroke-miterlimit="10"/>
<path d="M18.1206 65.2632C18.1206 65.2632 28.3789 83.7247 55.1606 80.2753C55.1606 80.2753 74.8418 76.0648 80.823 60.8421C86.8042 45.6195 84.131 39.0931 84.131 39.0931" stroke="#DDA953" stroke-width="2" stroke-miterlimit="10"/>
<path d="M57.1488 41.3118C57.5331 48.8745 49.3799 53.8786 43.8498 57.9271C42.2125 59.1255 38.3364 60.6964 35.1286 63.4494C29.6821 68.1296 20.6267 59.6275 18.6887 57.8786C17.1349 56.4697 11.5881 51.2713 11.3208 43.0769C11.1203 36.6154 15.414 32.7773 16.6838 31.0122C17.5693 29.7814 25.3382 23.2227 33.3075 20.2591C38.7875 18.2186 42.3462 20.7935 43.499 22.1053C47.5755 26.7531 56.5474 29.5547 57.1321 41.3118H57.1488Z" stroke="#DDA953" stroke-width="2" stroke-miterlimit="10"/>
<path d="M41.8617 42.8501C42.012 46.4453 40.2244 49.4574 37.8519 51.3846C37.1502 51.9514 35.964 52.9392 33.1071 53.004C29.398 53.1012 28.2619 51.174 27.4266 50.3319C26.7583 49.6518 23.6674 47.4493 23.5338 43.5465C23.4335 40.4696 24.8035 38.2995 25.3549 37.4574C25.7391 36.8744 28.3455 32.9878 32.94 32.7287C34.995 32.6153 36.5989 33.2793 37.3173 33.6194C40.475 35.1578 41.6779 38.753 41.8617 42.8339V42.8501Z" stroke="#DDA953" stroke-width="2" stroke-miterlimit="10"/>
<path d="M48.4945 26.8826C48.4945 26.8826 52.5377 13.4089 56.0295 14.6721C59.5213 15.9352 58.6358 16 60.6073 17.0688C63.4141 18.5911 75.6271 19.7895 79.2025 21.9757C83.4127 24.5506 84.1311 39.0769 66.2878 55.0445C66.2878 55.0445 56.6811 52.583 54.5927 49.7328" stroke="#DDA953" stroke-width="2" stroke-miterlimit="10"/>
<path d="M61.4258 26.8502C64.1157 26.8502 64.1157 22.8016 61.4258 22.8016C58.736 22.8016 58.736 26.8502 61.4258 26.8502Z" fill="#DDA953"/>
<path d="M69.7294 31.2875C72.4193 31.2875 72.4193 27.2389 69.7294 27.2389C67.0396 27.2389 67.0396 31.2875 69.7294 31.2875Z" fill="#DDA953"/>
<path d="M60.056 37.5708C62.7458 37.5708 62.7458 33.5222 60.056 33.5222C57.3661 33.5222 57.3661 37.5708 60.056 37.5708Z" fill="#DDA953"/>
<path d="M69.2449 41.3927C71.9348 41.3927 71.9348 37.3441 69.2449 37.3441C66.5551 37.3441 66.5551 41.3927 69.2449 41.3927Z" fill="#DDA953"/>
<path d="M62.0942 46.4292C64.7841 46.4292 64.7841 42.3806 62.0942 42.3806C59.4043 42.3806 59.4043 46.4292 62.0942 46.4292Z" fill="#DDA953"/>
<path d="M36.5488 70.6073C36.5488 70.6073 34.31 64.3887 41.6278 64.4534C48.9456 64.5182 50.2822 64.3239 55.6452 62.9636C55.6452 62.9636 71.1997 53.7166 75.1593 47.5142C75.1593 47.5142 82.0093 49.4089 79.6703 54.5425C79.6703 54.5425 74.7082 65.5384 64.2495 70.8502C64.2495 70.8502 56.3469 76.0486 45.4872 75.4656C45.4872 75.4656 38.2864 76.0324 36.5655 70.6235L36.5488 70.6073Z" stroke="#DDA953" stroke-width="2" stroke-miterlimit="10"/>
<path d="M45.5039 71.4817L47.9432 64.1781" stroke="#DDA953" stroke-width="2" stroke-miterlimit="10"/>
<path d="M56.8147 62.2349L55.4781 70.8826" stroke="#DDA953" stroke-width="2" stroke-miterlimit="10"/>
<path d="M62.2279 58.7207L66.6553 64.6964" stroke="#DDA953" stroke-width="2" stroke-miterlimit="10"/>
</svg>
