<svg width="138" height="102" viewBox="0 0 138 102" fill="none" xmlns="http://www.w3.org/2000/svg">
<g clip-path="url(#clip0_0_41)">
<path d="M70.6196 48.4228C93.5421 53.0867 113.683 49.2081 115.605 39.7598C117.528 30.3115 100.504 18.8713 77.5812 14.2074C54.6587 9.54353 34.518 13.4221 32.5956 22.8704C30.6732 32.3187 47.6972 43.7589 70.6196 48.4228Z" stroke="#DDA953" stroke-width="2" stroke-miterlimit="10"/>
<path d="M70.8049 44.7507C89.9334 48.6427 106.594 46.1258 108.018 39.1291C109.441 32.1325 95.0886 23.3054 75.9601 19.4135C56.8316 15.5215 40.1708 18.0384 38.7472 25.0351C37.3236 32.0318 51.6764 40.8588 70.8049 44.7507Z" fill="#DDAA53" stroke="#DDA953" stroke-width="2" stroke-miterlimit="10"/>
<path d="M51.4187 26.0819C51.8465 29.9927 53.3784 30.2568 71.8982 42.1386C71.8982 42.1386 96.6314 39.8658 97.2422 33.5505C97.7077 28.7465 88.9481 21.6661 74.6602 27.6432C75.394 27.9637 72.5873 24.5771 67.2635 22.7615C61.0067 20.6229 50.7907 20.3325 51.4187 26.0819Z" fill="white" stroke="#DDA953" stroke-width="0.75" stroke-miterlimit="10"/>
<path d="M32.4517 24.1916C32.4517 24.1916 26.5624 46.8779 35.0017 55.3485C35.0017 55.3485 41.5278 67.577 63.3337 73.003C63.3337 73.003 84.7051 79.092 99.4184 68.0174C99.4184 68.0174 110.472 60.45 114.001 43.1048C113.773 43.363 122.538 41.5222 126.813 46.6533C127.758 48.0821 133.465 54.2087 127.873 61.8123C127.873 61.8123 121.855 68.8727 109.461 69.9562C109.461 69.9562 100.607 69.8477 100.27 68.7423" stroke="#DDA953" stroke-width="2" stroke-miterlimit="10"/>
<path d="M104.687 62.9256C104.687 62.9256 113.983 66.082 119.937 60.7493C119.937 60.7493 127.577 54.1236 119.789 50.2465C119.789 50.2465 114.304 48.9783 111.676 51.031" stroke="#DDA953" stroke-width="2" stroke-miterlimit="10"/>
<path d="M41.6152 62.6677C41.6152 62.6677 42.6872 68.2601 53.7045 73.8784C64.7217 79.4968 79.0909 77.8452 79.0909 77.8452C79.0909 77.8452 88.0399 75.9563 89.1571 73.3491" stroke="#DDA953" stroke-width="2" stroke-miterlimit="10"/>
<path d="M30.5623 43.0499C30.5623 43.0499 9.06475 44.9443 6.73677 52.2134C6.73677 52.2134 1.3917 60.5047 14.1126 69.9605C14.1126 69.9605 24.5626 79.2873 55.6825 87.4739C55.6825 87.4739 84.1316 93.2623 94.7163 91.925C94.7163 91.925 114.213 91.7637 121.671 83.9498C121.671 83.9498 126.003 79.5331 122.856 71.8063C122.856 71.8063 120.733 67.2653 117.752 68.1712" stroke="#DDA953" stroke-width="2" stroke-miterlimit="10"/>
<path d="M74.2993 30.3378C74.2993 30.3378 78.8248 28.5286 81.7737 28.1489C81.7737 28.1489 86.5922 26.6181 89.6017 28.2102C89.6017 28.2102 93.6336 29.6869 93.8691 32.0271C93.8691 32.0271 95.0043 33.5042 90.9819 35.663C90.9819 35.663 80.2918 40.2795 72.4241 39.5538C72.4241 39.5538 53.9113 28.5581 55.2782 27.4855C55.2782 27.4855 53.3909 25.532 54.9918 24.6592C54.9918 24.6592 55.6931 22.6237 61.0093 23.9241C61.0093 23.9241 64.6878 24.1304 68.2352 25.7177C68.2352 25.7177 71.0013 26.6039 72.6563 28.4721L74.2993 30.3378Z" stroke="#DDA953" stroke-miterlimit="10"/>
</g>
<defs>
<clipPath id="clip0_0_41">
<rect width="124.692" height="78.0259" fill="white" transform="translate(15.5698 0.63916) rotate(11.5006)"/>
</clipPath>
</defs>
</svg>
