<svg width="117" height="158" viewBox="0 0 117 158" fill="none" xmlns="http://www.w3.org/2000/svg">
<g clip-path="url(#clip0_0_72)">
<path d="M61.9751 31.9294C61.9751 31.9294 94.4462 24.828 96.7557 38.2467L101.262 130.489C103.014 140.67 82.2274 146.35 70.0666 148.442L50.0382 150.35C37.8773 152.443 32.3742 143.604 30.6242 133.436L9.80756 63.5866C7.04606 47.5415 5.46682 45.0554 17.2974 41.6939L54.7322 32.4932" stroke="#DDA953" stroke-width="2" stroke-miterlimit="10"/>
<path d="M7.92236 51.9827C12.0934 52.7107 51.2894 63.0341 94.6945 37.0485" stroke="#DDA953" stroke-width="2" stroke-miterlimit="10"/>
<path d="M52.7461 52.8228C52.7461 52.8228 48.5649 72.9413 55.8344 70.7664C55.8344 70.7664 59.9404 69.4439 60.65 62.8822C60.65 62.8822 66.4716 7.2316 62.2005 7.96668C62.2005 7.96668 55.3212 5.16112 55.7959 12.7506C55.7959 12.7506 53.4985 48.1817 52.7461 52.8228Z" stroke="#DDA953" stroke-width="2" stroke-miterlimit="10"/>
<path d="M53.1725 59.2024C45.6232 59.6583 34.9163 61.9294 27.2539 65.5375C22.7295 67.588 18.21 69.9456 15.0987 73.1452C14.3697 73.9267 13.8714 74.6551 13.6929 75.5694C13.2788 79.2955 24.4476 78.779 27.9501 79.0598C36.1771 79.1968 48.3367 77.8404 58.844 75.6169C64.6037 74.5186 102.823 64.8615 96.4265 59.4694C91.2967 55.5862 72.1004 55.918 62.5729 57.3302" stroke="#DDA953" stroke-width="2" stroke-miterlimit="10"/>
<path d="M60.5628 97.4076L42.8466 107.566C40.7615 108.762 40.118 111.105 41.4092 112.801L48.225 121.751C49.5163 123.447 52.2533 123.852 54.3384 122.657L72.0546 112.498C74.1397 111.303 74.7832 108.959 73.4919 107.263L66.6762 98.3131C65.3849 96.6174 62.6479 96.212 60.5628 97.4076Z" stroke="#DDA953" stroke-width="2" stroke-miterlimit="10"/>
<path d="M90.1371 78.1167L82.491 91.5753C81.3974 93.4905 78.7378 94.3901 76.5351 93.5776L64.9466 89.3334C62.744 88.521 61.8376 86.3208 62.9312 84.4055L64.0982 76.413C65.1918 74.4978 68.3849 69.5437 70.5853 70.3431L80.2106 72.1004C82.4133 72.9128 91.2307 76.2014 90.1371 78.1167Z" stroke="#DDA953" stroke-width="2" stroke-miterlimit="10"/>
<path d="M30.7893 90.5397L31.5684 82.8014C31.7873 80.7287 39.048 69.3045 41.5026 69.3506L48.1473 69.4922C50.5886 69.554 54.5392 71.324 57.1111 75.8616L55.3276 93.4655C53.175 98.2405 47.7239 97.7864 45.2826 97.7246L34.8539 94.3652C32.4126 94.3034 30.597 92.5809 30.8004 90.511L30.7893 90.5397Z" stroke="#DDA953" stroke-width="2" stroke-miterlimit="10"/>
</g>
<defs>
<clipPath id="clip0_0_72">
<rect width="93.1539" height="143.429" fill="white" transform="translate(0.0373535 16.2959) rotate(-9.76539)"/>
</clipPath>
</defs>
</svg>
