<svg width="125" height="128" viewBox="0 0 125 128" fill="none" xmlns="http://www.w3.org/2000/svg">
<g clip-path="url(#clip0_0_80)">
<path d="M30.3768 116.15C30.3768 116.15 34.1014 128.647 45.603 125.906C57.1046 123.165 63.0491 121.224 63.0491 121.224C63.0491 121.224 100.832 109.902 107.313 92.7226C107.313 92.7226 84.6072 -0.187198 78.5436 2.14534C78.5436 2.14534 68.0401 0.732195 56.1958 2.9115C52.0094 3.67766 29.7511 11.186 27.4269 12.8205C27.4269 12.8205 1.41416 22.4401 2.09949 29.8634C2.09949 29.8634 28.4698 117.189 30.3768 116.15Z" stroke="#DDA953" stroke-width="2" stroke-miterlimit="10"/>
<path d="M2.90399 32.5534C2.90399 32.5534 72.4948 15.0168 82.0447 6.43579" stroke="#DDA953" stroke-width="2" stroke-miterlimit="10"/>
<path d="M90.1196 24.3979C90.1196 24.3979 106.642 20.7885 109.711 32.5533C112.78 44.3181 122.688 68.5288 116.207 69.295C116.207 69.295 105.957 79.187 104.243 74.8284" stroke="#DDA953" stroke-width="2" stroke-miterlimit="10"/>
<path d="M87.0356 19.4945C87.0356 19.4945 102.187 11.4583 107.312 19.4945C112.438 27.5307 115.849 26.3559 123.03 67.354C123.03 67.354 118.576 77.5525 104.243 80.4469" stroke="#DDA953" stroke-width="2" stroke-miterlimit="10"/>
<path d="M54.541 63.4472C76.3966 55.5434 92.2223 42.3047 89.8888 33.8777C87.5552 25.4506 67.9461 25.0264 46.0906 32.9302C24.235 40.834 8.40928 54.0727 10.7428 62.4997C13.0764 70.9267 32.6855 71.3509 54.541 63.4472Z" stroke="#DDA953" stroke-miterlimit="10"/>
<path d="M52.9658 58.8485C71.15 52.2724 84.5107 41.956 82.8077 35.806C81.1047 29.6561 64.9829 30.0016 46.7988 36.5776C28.6146 43.1537 15.2539 53.4701 16.9569 59.6201C18.6599 65.77 34.7816 65.4246 52.9658 58.8485Z" stroke="#DDA953" stroke-miterlimit="10"/>
<path d="M52.1822 54.924C68.1463 49.1508 80.1862 41.2148 79.0741 37.1985C77.9619 33.1822 64.1189 34.6065 48.1547 40.3797C32.1906 46.1529 20.1507 54.0888 21.2629 58.1051C22.375 62.1214 36.2181 60.6972 52.1822 54.924Z" stroke="#DDA953" stroke-miterlimit="10"/>
<path d="M48.1506 40.3853L49.8789 55.7255" stroke="#DDA953" stroke-miterlimit="10"/>
<path d="M27.3822 60.3905L71.0049 34.9709" stroke="#DDA953" stroke-miterlimit="10"/>
<path d="M21.2589 58.1091L79.065 37.2014" stroke="#DDA953" stroke-miterlimit="10"/>
<path d="M32.0156 47.6553H68.0699" stroke="#DDA953" stroke-miterlimit="10"/>
<path d="M39.1669 79.0508C40.3929 79.0508 41.3868 78.1055 41.3868 76.9396C41.3868 75.7736 40.3929 74.8284 39.1669 74.8284C37.9409 74.8284 36.947 75.7736 36.947 76.9396C36.947 78.1055 37.9409 79.0508 39.1669 79.0508Z" stroke="#DDA953" stroke-width="0.5" stroke-miterlimit="10"/>
<path d="M62.8853 72.4277C64.5227 72.4277 65.8501 71.551 65.8501 70.4697C65.8501 69.3883 64.5227 68.5117 62.8853 68.5117C61.2479 68.5117 59.9205 69.3883 59.9205 70.4697C59.9205 71.551 61.2479 72.4277 62.8853 72.4277Z" stroke="#DDA953" stroke-width="0.5" stroke-miterlimit="10"/>
<path d="M63.0491 86.8657C64.596 86.8657 65.8501 86.0806 65.8501 85.1121C65.8501 84.1435 64.596 83.3584 63.0491 83.3584C61.5022 83.3584 60.2482 84.1435 60.2482 85.1121C60.2482 86.0806 61.5022 86.8657 63.0491 86.8657Z" stroke="#DDA953" stroke-width="0.5" stroke-miterlimit="10"/>
<path d="M47.7484 88.2447C48.9333 88.2447 49.8938 87.1471 49.8938 85.793C49.8938 84.439 48.9333 83.3413 47.7484 83.3413C46.5635 83.3413 45.603 84.439 45.603 85.793C45.603 87.1471 46.5635 88.2447 47.7484 88.2447Z" stroke="#DDA953" stroke-width="0.5" stroke-miterlimit="10"/>
<path d="M30.3767 90.6114C31.2818 90.6114 32.0156 89.7729 32.0156 88.7386C32.0156 87.7042 31.2818 86.8657 30.3767 86.8657C29.4716 86.8657 28.7379 87.7042 28.7379 88.7386C28.7379 89.7729 29.4716 90.6114 30.3767 90.6114Z" stroke="#DDA953" stroke-width="0.5" stroke-miterlimit="10"/>
<path d="M95.5427 92.2799C96.3984 92.2799 97.0921 91.4871 97.0921 90.5092C97.0921 89.5313 96.3984 88.7385 95.5427 88.7385C94.6869 88.7385 93.9932 89.5313 93.9932 90.5092C93.9932 91.4871 94.6869 92.2799 95.5427 92.2799Z" stroke="#DDA953" stroke-width="0.5" stroke-miterlimit="10"/>
<path d="M74.5358 100.537C74.5358 100.537 82.6406 92.4502 82.8641 60.3906C82.8641 60.3906 73.1801 79.4595 74.5358 100.537Z" stroke="#DDA953" stroke-width="0.5" stroke-miterlimit="10"/>
<path d="M84.0857 58.1091C84.0857 58.1091 89.6578 65.8388 90.1196 80.447C90.1196 80.447 85.4713 102.087 74.5358 100.537" stroke="#DDA953" stroke-width="0.5" stroke-miterlimit="10"/>
<path d="M87.0357 76.9396L80.4357 85.793L81.6126 79.0678L78.618 74.8284" stroke="#DDA953" stroke-width="0.5" stroke-miterlimit="10"/>
<path d="M34.8016 95.4636C34.8016 95.4636 35.1294 107.177 45.603 107.177C45.603 107.177 63.66 106.003 68.0699 101.32C68.0699 101.32 57.939 98.2048 34.8016 95.4636Z" stroke="#DDA953" stroke-width="0.5" stroke-miterlimit="10"/>
<path d="M44.1132 98.5793C44.1132 98.5793 43.0554 100.537 62.8852 100.537" stroke="#DDA953" stroke-width="0.5" stroke-miterlimit="10"/>
<path d="M51.4283 103.653L56.1959 101.321" stroke="#DDA953" stroke-width="0.5" stroke-miterlimit="10"/>
<path d="M39.1669 100.622L49.1935 99.5498" stroke="#DDA953" stroke-width="0.5" stroke-miterlimit="10"/>
</g>
<defs>
<clipPath id="clip0_0_80">
<rect width="124" height="128" fill="white" transform="translate(0.594727)"/>
</clipPath>
</defs>
</svg>
