<svg width="207" height="233" viewBox="0 0 207 233" fill="none" xmlns="http://www.w3.org/2000/svg">
<path d="M203.836 182.704L79.608 224.997L18.878 42.4755L138.5 6.50233L203.836 182.704Z" stroke="#DDA953" stroke-width="2" stroke-miterlimit="10"/>
<path d="M18.5359 43.0965L39.1625 211.537" stroke="#DDA953" stroke-width="2" stroke-miterlimit="10"/>
<path d="M71.2273 200.708L39.1625 211.537" stroke="#DDA953" stroke-width="2" stroke-miterlimit="10"/>
<path d="M18.536 43.0963L71.2275 200.708" stroke="#DDA953" stroke-width="2" stroke-miterlimit="10"/>
<path d="M62.9824 99.3712L54.6502 73.7732L65.7963 82.3096L69.963 69.3103L79.2174 94.1064" stroke="#DDA953" stroke-width="2" stroke-miterlimit="10"/>
<path d="M89.5537 62.2615L79.6879 64.451L82.9821 76.6255L86.894 90.9481L100.11 86.9505" stroke="#DDA953" stroke-width="2" stroke-miterlimit="10"/>
<path d="M93.0724 74.1791L82.9817 76.6263" stroke="#DDA953" stroke-width="2" stroke-miterlimit="10"/>
<path d="M106.875 85.6569L98.8013 60.2092L118.525 80.5786L111.026 54.7957" stroke="#DDA953" stroke-width="2" stroke-miterlimit="10"/>
<path d="M120.489 52.6959C120.489 52.6959 126.812 79.1551 133.677 77.4239C140.541 75.6927 137.657 68.5427 137.657 68.5427C137.657 68.5427 133.672 53.5093 131.714 48.7506" stroke="#DDA953" stroke-width="2" stroke-miterlimit="10"/>
</svg>
