<svg width="157" height="124" viewBox="0 0 157 124" fill="none" xmlns="http://www.w3.org/2000/svg">
<g clip-path="url(#clip0_0_25)">
<path d="M70.2954 17.7472C70.2954 17.7472 79.3515 27.4635 97.9497 24.8001C97.9497 24.8001 101.103 19.4836 93.8438 16.9563C86.5845 14.4291 75.6592 11.4079 70.2954 17.7472Z" stroke="#D39C42" stroke-width="2" stroke-miterlimit="10"/>
<path d="M65.2217 19.3905C60.7792 20.9993 57.9246 22.0183 57.9216 22.0358C57.9185 22.0533 69.0755 17.5709 70.1033 18.8508C70.3133 19.1039 69.9965 19.4639 69.6842 20.0231C67.8946 23.2308 69.254 28.1057 72.2525 30.974C73.6597 32.3199 75.1349 32.9378 76.6261 33.5764C82.0684 35.8775 87.3188 35.2396 92.8122 34.5537C93.033 34.52 93.4526 34.4667 93.9316 34.2974C95.3463 33.8038 96.4445 32.6595 97.221 30.5568C98.6994 26.5549 97.101 24.3997 98.3633 23.7712C99.0685 23.4247 99.9589 23.9227 106.95 27.9914C107.305 28.1976 111.434 30.6311 115.429 34.2865C116.036 34.8433 116.823 35.5941 116.902 36.6004C117.023 38.2638 115.09 39.7139 113.357 40.3507C110.773 41.2725 109.45 40.1216 106.275 40.399C103.078 40.6906 98.9797 42.3413 98.0138 44.9705C96.924 47.9752 100.984 49.3498 100.749 53.839C100.649 55.5361 99.5944 57.5542 97.4497 61.5664C96.6662 63.0362 95.838 64.4261 95.4378 66.6124C95.1724 68.1363 95.2245 69.4087 95.2572 70.1183C95.4094 73.2851 96.2875 73.8531 96.1877 76.1097C96.1592 76.6101 96.047 78.3773 94.9064 80.3263C94.4847 81.0651 92.9021 83.5328 89.7819 84.5055C89.2651 84.6682 89.0693 84.6702 88.9335 84.6646C86.7567 84.4841 84.2681 79.8096 84.9831 75.9275C85.2302 74.5087 85.7403 74.2726 85.838 72.7014C85.9787 70.4339 85.0932 68.6735 84.7827 67.9877C82.5613 63.1251 85.7358 60.718 83.9491 54.1444C83.4771 52.3657 82.222 48.0143 77.7787 44.353C76.3949 43.2097 73.8593 41.162 69.9326 40.37C65.1554 39.4119 61.2935 40.9413 58.9026 41.8786C57.8757 42.2773 55.0254 43.4956 51.1999 46.8361C50.1133 47.802 49.1717 48.7209 48.331 49.6213C43.8296 54.4864 42.9297 58.0837 40.7333 57.7915C38.6317 57.5158 37.6902 53.8326 36.8613 51.5225C36.6266 50.85 36.5857 50.8609 37.2711 44.2304C37.8793 38.3806 40.8323 38.4797 41.6578 37.6669C43.1143 36.2601 43.9024 36.5597 48.5857 34.5777C52.2769 33.0186 55.6372 31.5643 58.4181 28.836C59.4289 27.8569 62.6586 24.6834 61.474 23.0694C60.8404 22.2192 59.0227 21.8846 51.2574 22.8246C40.0371 24.1918 34.3578 24.9356 31.0546 27.97C27.0292 31.6727 27.1362 36.2213 27.6516 36.8525C27.9222 37.2064 28.2368 37.5319 28.2368 37.5319C28.2368 37.5319 28.6848 37.9889 29.2338 38.4274" stroke="#D39C42" stroke-width="2" stroke-miterlimit="10"/>
<path d="M98.7608 59.0875C124.323 60.1994 130.111 55.0167 130.111 55.0167C131.263 54.4593 132.001 53.8118 132.476 53.1005C134.363 50.2345 131.574 46.6087 131.574 46.6087C126.382 38.1607 116.208 35.0898 116.208 35.0898" stroke="#D39C42" stroke-width="2" stroke-miterlimit="10"/>
<path d="M129.346 60.0813C129.63 60.1308 129.71 60.2349 129.585 60.3936L129.538 60.4395" stroke="#D39C42" stroke-width="2" stroke-miterlimit="10"/>
<path d="M48.3561 49.5895C57.2128 54.6147 78.9833 57.4126 83.5292 58.2402" stroke="#D39C42" stroke-width="2" stroke-miterlimit="10"/>
<path d="M114.48 75.0895C114.48 75.0895 123.248 75.3527 129.996 69.2545C129.996 69.2545 133.175 65.4765 131.106 62.8784L129.038 60.2803C129.038 60.2803 133.032 59.7847 131.262 54.3509" stroke="#D39C42" stroke-width="2" stroke-miterlimit="10"/>
<path d="M26.892 43.2354C26.892 43.2354 20.5846 46.5769 24.1258 51.94C27.667 57.3031 34.3346 63.2286 45.9809 66.9348C45.9809 66.9348 63.7328 73.5089 85.2329 74.9422" stroke="#D39C42" stroke-width="2" stroke-miterlimit="10"/>
<path d="M24.7693 52.8462C24.7693 52.8462 22.5498 56.5024 23.4348 59.7247C23.7352 60.8057 24.3762 61.8377 25.5402 62.672C30.2562 66.0018 33.2449 72.4057 57.8697 78.2272C82.4944 84.0488 81.4191 84.2766 105.672 83.482C129.908 82.6666 129.173 76.1137 129.173 76.1137C129.173 76.1137 131.047 68.6072 128.966 70.1218" stroke="#D39C42" stroke-width="2" stroke-miterlimit="10"/>
<path d="M128.511 77.7851L128.768 79.0029L129.129 80.7442C129.519 83.6638 127.97 85.9388 126.549 87.3697C125.435 88.4932 124.371 89.1021 124.371 89.1021C103.12 95.3283 110.673 93.142 94.6125 94.1357C78.5553 95.112 54.7377 88.5827 40.9988 82.9781C27.2789 77.3768 23.1517 69.6557 23.1517 69.6557C19.5225 66.9303 23.8641 60.7379 23.8641 60.7379C23.8641 60.7379 9.08056 63.9391 6.93354 71.6687C4.78652 79.3983 8.09965 82.5921 15.2339 89.429C22.3682 96.266 48.2677 106.551 65.2651 109.041C82.2625 111.531 96.4152 114.085 109.667 111.827C122.918 109.568 131.524 109.298 138.61 102.049C145.695 94.8002 139.483 88.5028 139.483 88.5028C139.483 88.5028 137.07 84.7438 133.652 82.0371L128.552 77.7741L128.511 77.7851Z" stroke="#D39C42" stroke-width="2" stroke-miterlimit="10"/>
<path d="M126.527 87.384C126.527 87.384 127.337 93.2822 124.388 94.8442C118.291 98.0961 104.681 101.069 104.681 101.069C104.681 101.069 102.874 102.577 78.52 100.141C54.1624 97.723 39.8917 90.3474 39.8917 90.3474C39.8917 90.3474 20.8522 81.8527 22.867 75.219C22.867 75.219 22.2482 72.1514 22.5133 69.0573" stroke="#D39C42" stroke-width="2" stroke-miterlimit="10"/>
<path d="M96.2095 75.5359C96.2095 75.5359 101.008 76.3714 115.383 75.0663" stroke="#D39C42" stroke-width="2" stroke-miterlimit="10"/>
<path d="M95.6068 65.8657C95.6068 65.8657 115.543 69.7701 130.106 59.8707" stroke="#D39C42" stroke-width="2" stroke-miterlimit="10"/>
<path d="M44.4791 55.3575C44.4791 55.3575 52.1587 61.5314 83.9901 64.9079" stroke="#D39C42" stroke-width="2" stroke-miterlimit="10"/>
<path d="M38.0471 44.6001C38.0471 44.6001 31.4891 43.6568 28.8572 38.795C26.2253 33.9331 28.1996 37.6337 28.1996 37.6337C28.1996 37.6337 26.6255 43.5319 28.3181 44.5846C28.3181 44.5846 31.8597 49.4966 36.464 52.1211" stroke="#D39C42" stroke-width="2" stroke-miterlimit="10"/>
</g>
<defs>
<clipPath id="clip0_0_25">
<rect width="141.097" height="100.138" fill="white" transform="translate(17.1677 0.880859) rotate(9.87691)"/>
</clipPath>
</defs>
</svg>
