<svg width="30" height="61" viewBox="0 0 30 61" fill="none" xmlns="http://www.w3.org/2000/svg">
<path d="M18.9426 32.5092C18.9426 31.7443 16.3605 31.1255 13.1735 31.1255C9.98655 31.1255 7.40442 31.7443 7.40442 32.5092C7.40442 32.6969 7.56725 32.8777 7.85416 33.0446C8.73038 33.5452 10.7852 33.8929 13.1813 33.8929C16.3682 33.8929 18.9503 33.274 18.9503 32.5092H18.9426Z" stroke="#DDA953" stroke-width="2" stroke-miterlimit="10"/>
<path d="M7.73781 33.0447C9.31965 41.8405 0.0689626 42.6262 1.077 52.0061C1.077 52.0061 1.25535 58.0624 10.5913 59.5782C15.6393 60.0162 30.4032 58.7508 24.0138 45.2267C22.9204 43.8431 17.6631 37.9258 18.834 33.0447" stroke="#DDA953" stroke-width="2" stroke-miterlimit="10"/>
<path d="M10.4131 51.7694C10.4131 51.7694 13.4527 40.234 15.9262 21.5576" stroke="#DDA953" stroke-width="2" stroke-miterlimit="10"/>
<path d="M14.6778 30.2422C14.6778 30.2422 20.9043 25.4583 22.2381 26.3345C22.2381 26.3345 23.3081 27.5791 22.2381 28.2327" stroke="#DDA953" stroke-width="2" stroke-miterlimit="10"/>
<path d="M12.5455 31.1325C12.5455 31.1325 1.34072 28.0105 2.23245 23.9498C2.23245 23.9498 4.00815 21.9543 8.72267 24.8259C8.72267 24.8259 13.569 28.4972 14.5228 31.1325" stroke="#DDA953" stroke-width="2" stroke-miterlimit="10"/>
<path d="M16.9092 13.9414C18.0977 13.1351 18.594 11.9278 18.0178 11.2449C17.4416 10.562 16.0111 10.662 14.8226 11.4683C13.6341 12.2746 13.1377 13.4818 13.7139 14.1648C14.2901 14.8477 15.7207 14.7477 16.9092 13.9414Z" stroke="#DDA953" stroke-width="2" stroke-miterlimit="10"/>
<path d="M13.4382 11.6308C14.4285 10.7429 13.6552 8.60983 11.7111 6.86654C9.76699 5.12325 7.38826 4.42985 6.39805 5.31778C5.40783 6.20572 6.18111 8.33876 8.1252 10.082C10.0693 11.8253 12.448 12.5187 13.4382 11.6308Z" stroke="#DDA953" stroke-width="2" stroke-miterlimit="10"/>
<path d="M8.7007 16.5292C11.4255 16.2006 13.4831 14.9253 13.2965 13.6808C13.1098 12.4363 10.7496 11.6938 8.02474 12.0224C5.29991 12.351 3.24232 13.6263 3.42898 14.8708C3.61565 16.1154 5.97588 16.8579 8.7007 16.5292Z" stroke="#DDA953" stroke-width="2" stroke-miterlimit="10"/>
<path d="M15.6382 10.6886C17.012 10.4449 17.6931 8.28673 17.1595 5.86821C16.626 3.4497 15.0798 1.68665 13.7061 1.93034C12.3323 2.17403 11.6512 4.33218 12.1847 6.7507C12.7183 9.16921 14.2645 10.9322 15.6382 10.6886Z" stroke="#DDA953" stroke-width="2" stroke-miterlimit="10"/>
<path d="M15.7101 20.2412C16.5638 17.8977 16.1768 15.6818 14.8456 15.2919C13.5145 14.902 11.7433 16.4857 10.8896 18.8292C10.0359 21.1727 10.4229 23.3886 11.7541 23.7785C13.0852 24.1684 14.8564 22.5847 15.7101 20.2412Z" stroke="#DDA953" stroke-width="2" stroke-miterlimit="10"/>
<path d="M23.1727 21.3608C24.3511 20.6824 24.1023 18.4506 22.617 16.3759C21.1317 14.3013 18.9723 13.1694 17.7939 13.8478C16.6154 14.5262 16.8642 16.758 18.3495 18.8326C19.8348 20.9073 21.9942 22.0392 23.1727 21.3608Z" stroke="#DDA953" stroke-width="2" stroke-miterlimit="10"/>
<path d="M23.9206 14.98C26.67 14.98 28.8988 13.962 28.8988 12.7063C28.8988 11.4506 26.67 10.4326 23.9206 10.4326C21.1712 10.4326 18.9424 11.4506 18.9424 12.7063C18.9424 13.962 21.1712 14.98 23.9206 14.98Z" stroke="#DDA953" stroke-width="2" stroke-miterlimit="10"/>
<path d="M22.7688 8.08772C24.3277 6.0569 24.6562 3.83344 23.5027 3.12146C22.3492 2.40948 20.1503 3.4786 18.5915 5.50941C17.0327 7.54023 16.7041 9.7637 17.8576 10.4757C19.0112 11.1877 21.21 10.1185 22.7688 8.08772Z" stroke="#DDA953" stroke-width="2" stroke-miterlimit="10"/>
</svg>
