<svg width="67" height="49" viewBox="0 0 67 49" fill="none" xmlns="http://www.w3.org/2000/svg">
<g clip-path="url(#clip0_52_85)">
<path d="M33.8389 22.9008C44.8247 25.136 54.4773 23.2772 55.3987 18.749C56.32 14.2208 48.1611 8.738 37.1753 6.50278C26.1895 4.26757 16.5368 6.12639 15.6155 10.6546C14.6942 15.1828 22.8531 20.6656 33.8389 22.9008Z" stroke="#DDA953" stroke-width="2" stroke-miterlimit="10"/>
<path d="M33.9277 21.1408C43.0952 23.0061 51.08 21.7999 51.7623 18.4466C52.4446 15.0934 45.5659 10.863 36.3984 8.99772C27.2308 7.13245 19.246 8.33869 18.5637 11.6919C17.8815 15.0452 24.7601 19.2756 33.9277 21.1408Z" fill="#DDAA53" stroke="#DDA953" stroke-width="2" stroke-miterlimit="10"/>
<path d="M24.6367 12.1937C24.8417 14.068 25.5759 14.1946 34.4517 19.889C34.4517 19.889 46.3053 18.7997 46.598 15.7731C46.8211 13.4707 42.623 10.0774 35.7754 12.9419C36.1271 13.0956 34.7819 11.4725 32.2305 10.6023C29.2318 9.57738 24.3357 9.43823 24.6367 12.1937Z" fill="white" stroke="#DDA953" stroke-width="0.75" stroke-miterlimit="10"/>
<path d="M15.5465 11.2877C15.5465 11.2877 12.724 22.1604 16.7686 26.22C16.7686 26.22 19.8963 32.0806 30.347 34.681C30.347 34.681 40.5895 37.5993 47.641 32.2917C47.641 32.2917 52.9383 28.6649 54.6297 20.3521C54.5208 20.4758 58.7212 19.5936 60.7698 22.0527C61.2229 22.7375 63.9583 25.6737 61.2782 29.3178C61.2782 29.3178 58.3938 32.7016 52.4541 33.2208C52.4541 33.2208 48.2104 33.1688 48.049 32.6391" stroke="#DDA953" stroke-width="2" stroke-miterlimit="10"/>
<path d="M50.1659 29.8514C50.1659 29.8514 54.621 31.3642 57.4746 28.8084C57.4746 28.8084 61.1364 25.633 57.4037 23.7749C57.4037 23.7749 54.775 23.1671 53.5157 24.1508" stroke="#DDA953" stroke-width="2" stroke-miterlimit="10"/>
<path d="M19.9382 29.7278C19.9382 29.7278 20.452 32.408 25.7321 35.1006C31.0122 37.7933 37.8988 37.0017 37.8988 37.0017C37.8988 37.0017 42.1877 36.0965 42.7231 34.8469" stroke="#DDA953" stroke-width="2" stroke-miterlimit="10"/>
<path d="M14.641 20.3258C14.641 20.3258 4.33814 21.2337 3.22244 24.7175C3.22244 24.7175 0.660759 28.6912 6.75739 33.223C6.75739 33.223 11.7656 37.6929 26.6801 41.6164C26.6801 41.6164 40.3147 44.3905 45.3875 43.7496C45.3875 43.7496 54.7315 43.6723 58.3057 39.9275C58.3057 39.9275 60.3819 37.8107 58.8736 34.1076C58.8736 34.1076 57.8564 31.9313 56.4277 32.3654" stroke="#DDA953" stroke-width="2" stroke-miterlimit="10"/>
<path d="M35.6024 14.2332C35.6024 14.2332 37.7713 13.3662 39.1845 13.1842C39.1845 13.1842 41.4939 12.4506 42.9362 13.2136C42.9362 13.2136 44.8685 13.9213 44.9814 15.0429C44.9814 15.0429 45.5255 15.7508 43.5977 16.7854C43.5977 16.7854 38.4744 18.9979 34.7037 18.6501C34.7037 18.6501 25.8313 13.3803 26.4863 12.8662C26.4863 12.8662 25.5818 11.93 26.3491 11.5117C26.3491 11.5117 26.6852 10.5362 29.233 11.1594C29.233 11.1594 30.996 11.2583 32.6961 12.019C32.6961 12.019 34.0218 12.4438 34.815 13.3391L35.6024 14.2332Z" stroke="#DDA953" stroke-miterlimit="10"/>
</g>
<defs>
<clipPath id="clip0_52_85">
<rect width="59.7599" height="37.3947" fill="white" transform="translate(7.45572) rotate(11.5006)"/>
</clipPath>
</defs>
</svg>
