<svg width="70" height="59" viewBox="0 0 70 59" fill="none" xmlns="http://www.w3.org/2000/svg">
<g clip-path="url(#clip0_52_69)">
<path d="M31.7698 7.76327C31.7698 7.76327 35.7268 12.3795 44.0043 10.9732C44.0043 10.9732 45.4403 8.39318 42.2332 7.22524C39.0262 6.05729 34.1943 4.67611 31.7698 7.76327Z" stroke="#D39C42" stroke-width="2" stroke-miterlimit="10"/>
<path d="M29.5055 8.58812C27.5218 9.39217 26.2472 9.90172 26.2457 9.91017C26.2443 9.91862 31.2292 7.68654 31.6771 8.29571C31.7687 8.41615 31.6256 8.59152 31.4831 8.86279C30.6669 10.4187 31.2381 12.7561 32.5506 14.1166C33.1665 14.7551 33.8176 15.0426 34.4756 15.34C36.8772 16.4113 39.2132 16.0691 41.6575 15.7023C41.7558 15.6846 41.9425 15.6561 42.1563 15.5714C42.788 15.3244 43.2833 14.7662 43.6422 13.7489C44.3255 11.8129 43.6301 10.7861 44.1949 10.4752C44.5104 10.3037 44.9025 10.5375 47.9801 12.4492C48.1363 12.546 49.954 13.6898 51.7037 15.4225C51.9694 15.6865 52.3142 16.0426 52.3425 16.5264C52.385 17.3263 51.5168 18.0372 50.743 18.3553C49.5894 18.8162 49.0092 18.2711 47.5973 18.4258C46.1755 18.5875 44.3445 19.4095 43.898 20.6814C43.3939 22.135 45.1877 22.7695 45.0536 24.9318C44.9978 25.7494 44.5158 26.7278 43.5366 28.6733C43.1788 29.386 42.8017 30.0606 42.6093 31.1156C42.4813 31.8509 42.4959 32.463 42.5057 32.8043C42.5521 34.3275 42.9383 34.5951 42.8789 35.6819C42.8629 35.9229 42.8012 36.7743 42.2817 37.7201C42.0894 38.0785 41.3701 39.2768 39.9779 39.7659C39.7473 39.8476 39.6603 39.8499 39.6 39.8481C38.6345 39.7758 37.5605 37.5424 37.904 35.6691C38.0232 34.9845 38.2513 34.8675 38.3052 34.1106C38.3829 33.0182 38.0014 32.1768 37.8681 31.8488C36.914 29.5231 38.3399 28.3433 37.5904 25.1911C37.3926 24.3381 36.8643 22.252 34.9154 20.5194C34.3085 19.9784 33.1961 19.0097 31.4575 18.6547C29.3423 18.2255 27.6169 18.9874 26.5488 19.4546C26.0901 19.6533 24.8161 20.2588 23.0948 21.8922C22.6058 22.3644 22.1815 22.813 21.8021 23.252C19.7705 25.6238 19.3468 27.3613 18.3733 27.2354C17.4418 27.1167 17.0482 25.3502 16.6955 24.2438C16.5958 23.9217 16.5775 23.9272 16.9263 20.7311C17.2355 17.9114 18.5463 17.9393 18.9183 17.5426C19.5746 16.8557 19.9226 16.9947 22.0157 16.0094C23.6655 15.2343 25.1676 14.5118 26.4208 13.18C26.8763 12.702 28.3318 11.1529 27.8165 10.3839C27.5408 9.97892 26.7358 9.83004 23.2808 10.3344C18.2886 11.0674 15.7614 11.4634 14.2741 12.946C12.4616 14.7552 12.4787 16.9438 12.7034 17.2442C12.8212 17.4127 12.9588 17.5673 12.9588 17.5673C12.9588 17.5673 13.1547 17.7843 13.3956 17.9917" stroke="#D39C42" stroke-width="2" stroke-miterlimit="10"/>
<path d="M44.1353 27.4714C55.4804 27.8358 58.0854 25.3025 58.0854 25.3025C58.6009 25.0266 58.933 24.7099 59.149 24.3644C60.0059 22.9723 58.7917 21.2457 58.7917 21.2457C56.542 17.2141 52.0441 15.804 52.0441 15.804" stroke="#D39C42" stroke-width="2" stroke-miterlimit="10"/>
<path d="M57.712 27.7454C57.838 27.7673 57.8727 27.8169 57.816 27.8941L57.7947 27.9165" stroke="#D39C42" stroke-width="2" stroke-miterlimit="10"/>
<path d="M21.8134 23.2366C25.7132 25.5962 35.3631 26.7974 37.3765 27.1654" stroke="#D39C42" stroke-width="2" stroke-miterlimit="10"/>
<path d="M51.0097 35.0686C51.0097 35.0686 54.9017 35.1367 57.9394 32.1564C57.9394 32.1564 59.3764 30.3166 58.4751 29.0799L57.5738 27.8432C57.5738 27.8432 59.3512 27.578 58.6013 24.9744" stroke="#D39C42" stroke-width="2" stroke-miterlimit="10"/>
<path d="M12.3234 20.3216C12.3234 20.3216 9.49985 21.9721 11.0367 24.5299C12.5736 27.0877 15.4951 29.8953 20.6426 31.6013C20.6426 31.6013 28.4826 34.647 38.0215 35.1932" stroke="#D39C42" stroke-width="2" stroke-miterlimit="10"/>
<path d="M11.3164 24.9617C11.3164 24.9617 10.3063 26.7364 10.6778 28.2815C10.804 28.7998 11.0818 29.2923 11.5931 29.6861C13.6653 31.2573 14.9499 34.3197 25.8471 36.9572C36.7444 39.5948 36.2653 39.7116 47.0415 39.1671C57.8107 38.6126 57.5281 35.4634 57.5281 35.4634C57.5281 35.4634 58.4104 31.8378 57.476 32.5807" stroke="#D39C42" stroke-width="2" stroke-miterlimit="10"/>
<path d="M57.2228 36.2724L57.3288 36.8568L57.4776 37.6926C57.6315 39.0952 56.9283 40.2006 56.2874 40.8989C55.7851 41.4471 55.3087 41.7473 55.3087 41.7473C45.8293 44.8861 49.1981 43.7833 42.0589 44.369C34.9211 44.9462 24.387 41.9626 18.3229 39.3567C12.2671 36.7524 10.4857 33.0635 10.4857 33.0635C8.89218 31.7759 10.8617 28.7663 10.8617 28.7663C10.8617 28.7663 4.27476 30.406 3.26958 34.1408C2.26441 37.8757 3.71447 39.3908 6.8372 42.6339C9.95993 45.8771 21.3935 50.6544 28.9257 51.7394C36.4578 52.8244 42.7261 53.9594 48.6264 52.7836C54.5267 51.6078 58.3507 51.4202 61.5458 47.8838C64.741 44.3474 62.0243 41.3578 62.0243 41.3578C62.0243 41.3578 60.9775 39.5646 59.4778 38.2847L57.2411 36.2668L57.2228 36.2724Z" stroke="#D39C42" stroke-width="2" stroke-miterlimit="10"/>
<path d="M56.2775 40.9058C56.2775 40.9058 56.5978 43.7394 55.2776 44.511C52.5484 46.117 46.484 47.6386 46.484 47.6386C46.484 47.6386 45.6717 48.3767 34.8718 47.3671C24.0705 46.3659 17.7819 42.9112 17.7819 42.9112C17.7819 42.9112 9.38297 38.9496 10.3221 35.7432C10.3221 35.7432 10.0678 34.2708 10.2062 32.7797" stroke="#D39C42" stroke-width="2" stroke-miterlimit="10"/>
<path d="M42.8924 35.4056C42.8924 35.4056 45.0179 35.7757 51.4109 35.0514" stroke="#D39C42" stroke-width="2" stroke-miterlimit="10"/>
<path d="M42.6894 30.7551C42.6894 30.7551 51.5173 32.5011 58.0508 27.6389" stroke="#D39C42" stroke-width="2" stroke-miterlimit="10"/>
<path d="M20.0531 26.0388C20.0531 26.0388 23.4225 28.9592 37.5366 30.3717" stroke="#D39C42" stroke-width="2" stroke-miterlimit="10"/>
<path d="M17.2684 20.9039C17.2684 20.9039 14.3622 20.4937 13.2258 18.1711C12.0895 15.8485 12.9415 17.6165 12.9415 17.6165C12.9415 17.6165 12.203 20.4661 12.9477 20.9615C12.9477 20.9615 14.4878 23.3021 16.5151 24.5346" stroke="#D39C42" stroke-width="2" stroke-miterlimit="10"/>
</g>
<defs>
<clipPath id="clip0_52_69">
<rect width="62.4987" height="48.3161" fill="white" transform="translate(8.28775) rotate(9.87691)"/>
</clipPath>
</defs>
</svg>
