<svg width="35" height="50" viewBox="0 0 35 50" fill="none" xmlns="http://www.w3.org/2000/svg">
<g clip-path="url(#clip0_52_95)">
<path d="M18.1997 9.7493C18.1997 9.7493 27.6848 7.64141 28.4106 11.8586L30.0696 40.8063C30.6203 44.0059 24.5526 45.7108 20.9982 46.3225L15.1387 46.8472C11.5844 47.4589 9.93994 44.6663 9.38995 41.4707L3.03568 19.4866C2.16781 14.4439 1.69609 13.6584 5.14904 12.6476L16.0803 9.8995" stroke="#DDA953" stroke-width="2" stroke-miterlimit="10"/>
<path d="M2.44083 15.8401C3.66525 16.0838 15.1841 19.4657 27.8024 11.4752" stroke="#DDA953" stroke-width="2" stroke-miterlimit="10"/>
<path d="M15.5733 16.2684C15.5733 16.2684 14.4226 22.563 16.5439 21.9076C16.5439 21.9076 17.7417 21.5079 17.9254 19.4525C17.9254 19.4525 19.426 2.01948 18.1777 2.23433C18.1777 2.23433 16.1523 1.32909 16.3193 3.71122C16.3193 3.71122 15.7766 14.8155 15.5733 16.2684Z" stroke="#DDA953" stroke-width="2" stroke-miterlimit="10"/>
<path d="M15.7217 18.2708C13.5121 18.386 10.3842 19.059 8.15308 20.1625C6.83537 20.789 5.52023 21.5118 4.62066 22.5039C4.41 22.7463 4.26672 22.9729 4.21781 23.259C4.11021 24.4262 7.37979 24.3052 8.40672 24.4062C10.817 24.4794 14.3737 24.0987 17.4433 23.44C19.1263 23.1166 30.2858 20.2283 28.3922 18.5136C26.8753 17.2768 21.2538 17.3103 18.4682 17.7182" stroke="#DDA953" stroke-width="2" stroke-miterlimit="10"/>
<path d="M18.0268 30.2809L12.8749 33.4018C12.2685 33.7691 12.0887 34.5019 12.4731 35.0385L14.5025 37.8707C14.8869 38.4073 15.6901 38.5445 16.2965 38.1772L21.4484 35.0563C22.0547 34.689 22.2346 33.9562 21.8501 33.4196L19.8208 30.5873C19.4364 30.0508 18.6332 29.9136 18.0268 30.2809Z" stroke="#DDA953" stroke-width="2" stroke-miterlimit="10"/>
<path d="M26.6185 24.3391L24.4284 28.5322C24.1151 29.1288 23.3394 29.4012 22.6912 29.1383L19.2812 27.7645C18.633 27.5016 18.3595 26.8082 18.6727 26.2115L18.9852 23.709C19.2985 23.1123 20.2155 21.5702 20.863 21.8291L23.6888 22.4156C24.337 22.6785 26.9318 23.7424 26.6185 24.3391Z" stroke="#DDA953" stroke-width="2" stroke-miterlimit="10"/>
<path d="M9.2806 28.0173L9.48033 25.5931C9.53684 24.9438 11.6216 21.3874 12.3407 21.4109L14.2875 21.4797C15.0028 21.5081 16.1665 22.0778 16.9366 23.5104L16.4789 29.0252C15.8659 30.5149 14.2676 30.3524 13.5522 30.3241L10.4852 29.2321C9.7699 29.2037 9.23176 28.6568 9.28373 28.0083L9.2806 28.0173Z" stroke="#DDA953" stroke-width="2" stroke-miterlimit="10"/>
</g>
<defs>
<clipPath id="clip0_52_95">
<rect width="27.2269" height="45.0763" fill="white" transform="translate(0 4.61816) rotate(-9.76539)"/>
</clipPath>
</defs>
</svg>
