<svg width="63" height="74" viewBox="0 0 63 74" fill="none" xmlns="http://www.w3.org/2000/svg">
<path d="M60.8998 57.4387L23.7282 71.3289L6.39098 14.1374L42.165 2.25823L60.8998 57.4387Z" stroke="#DDA953" stroke-width="2" stroke-miterlimit="10"/>
<path d="M6.63275 13.7535L12.0779 67.1428" stroke="#DDA953" stroke-width="2" stroke-miterlimit="10"/>
<path d="M21.8475 63.7101L12.3704 67.1426" stroke="#DDA953" stroke-width="2" stroke-miterlimit="10"/>
<path d="M6.32031 13.8672L21.8272 63.5961" stroke="#DDA953" stroke-width="2" stroke-miterlimit="10"/>
<path d="M19.3234 31.5797L16.9453 23.5538L20.2322 26.1917L21.5275 22.0771L24.1838 29.8461" stroke="#DDA953" stroke-width="2" stroke-miterlimit="10"/>
<path d="M27.276 19.8489L24.3171 20.5856L25.2519 24.4128L26.3624 28.9151L30.3304 27.5923" stroke="#DDA953" stroke-width="2" stroke-miterlimit="10"/>
<path d="M28.2569 23.6055L25.2856 24.3811" stroke="#DDA953" stroke-width="2" stroke-miterlimit="10"/>
<path d="M32.2456 27.2334L29.9342 19.2351L35.7537 25.5759L33.6156 17.469" stroke="#DDA953" stroke-width="2" stroke-miterlimit="10"/>
<path d="M36.3204 16.8508C36.3204 16.8508 38.1057 25.1804 40.1697 24.6017C42.2337 24.023 41.3991 21.7776 41.3991 21.7776C41.3991 21.7776 40.2672 17.0468 39.7 15.5525" stroke="#DDA953" stroke-width="2" stroke-miterlimit="10"/>
</svg>
