<svg width="53" height="50" viewBox="0 0 53 50" fill="none" xmlns="http://www.w3.org/2000/svg">
<g clip-path="url(#clip0_52_84)">
<path d="M26.5 49.1287C40.6261 49.1287 52.0776 38.3279 52.0776 25.0044C52.0776 11.6809 40.6261 0.880127 26.5 0.880127C12.3739 0.880127 0.922394 11.6809 0.922394 25.0044C0.922394 38.3279 12.3739 49.1287 26.5 49.1287Z" stroke="#DDA953" stroke-width="2" stroke-miterlimit="10"/>
<path d="M13.4022 9.87501C13.4022 9.87501 23.5115 1.505 36.5908 8.13236" stroke="#DDA953" stroke-width="2" stroke-miterlimit="10"/>
<path d="M9.67578 35.4691C9.67578 35.4691 15.3392 45.5025 30.125 43.6278C30.125 43.6278 40.9906 41.3395 44.2927 33.0663C47.5949 24.7931 46.119 21.2462 46.119 21.2462" stroke="#DDA953" stroke-width="2" stroke-miterlimit="10"/>
<path d="M31.2226 22.4521C31.4347 26.5623 26.9335 29.2818 23.8804 31.4822C22.9765 32.1335 20.8366 32.9872 19.0656 34.4834C16.0587 37.027 11.0593 32.4063 9.98939 31.4558C9.13157 30.69 6.06927 27.8648 5.92169 23.4114C5.811 19.8997 8.18152 17.8138 8.88253 16.8545C9.37139 16.1856 13.6605 12.621 18.0602 11.0104C21.0856 9.90145 23.0503 11.3009 23.6867 12.0138C25.9374 14.5397 30.8905 16.0623 31.2134 22.4521H31.2226Z" stroke="#DDA953" stroke-width="2" stroke-miterlimit="10"/>
<path d="M22.7828 23.2882C22.8658 25.2421 21.8789 26.8791 20.5691 27.9264C20.1817 28.2345 19.5268 28.7714 17.9495 28.8066C15.9018 28.8594 15.2746 27.812 14.8134 27.3544C14.4445 26.9847 12.7381 25.7877 12.6643 23.6666C12.6089 21.9944 13.3653 20.815 13.6697 20.3574C13.8818 20.0405 15.3207 17.9282 17.8573 17.7874C18.9918 17.7258 19.8773 18.0866 20.2739 18.2715C22.0172 19.1076 22.6813 21.0615 22.7828 23.2794V23.2882Z" stroke="#DDA953" stroke-width="2" stroke-miterlimit="10"/>
<path d="M26.4446 14.6102C26.4446 14.6102 28.6768 7.28751 30.6046 7.97401C32.5324 8.66051 32.0435 8.69571 33.1319 9.2766C34.6815 10.1039 41.4241 10.7552 43.398 11.9434C45.7224 13.3428 46.119 21.2375 36.268 29.9156C36.268 29.9156 30.9643 28.5778 29.8113 27.0288" stroke="#DDA953" stroke-width="2" stroke-miterlimit="10"/>
<path d="M33.5839 14.5925C35.0689 14.5925 35.0689 12.3922 33.5839 12.3922C32.0988 12.3922 32.0988 14.5925 33.5839 14.5925Z" fill="#DDA953"/>
<path d="M38.1681 17.004C39.6532 17.004 39.6532 14.8037 38.1681 14.8037C36.6831 14.8037 36.6831 17.004 38.1681 17.004Z" fill="#DDA953"/>
<path d="M32.8275 20.4189C34.3126 20.4189 34.3126 18.2186 32.8275 18.2186C31.3425 18.2186 31.3425 20.4189 32.8275 20.4189Z" fill="#DDA953"/>
<path d="M37.9006 22.4961C39.3857 22.4961 39.3857 20.2958 37.9006 20.2958C36.4156 20.2958 36.4156 22.4961 37.9006 22.4961Z" fill="#DDA953"/>
<path d="M33.9528 25.2333C35.4379 25.2333 35.4379 23.033 33.9528 23.033C32.4678 23.033 32.4678 25.2333 33.9528 25.2333Z" fill="#DDA953"/>
<path d="M19.8496 38.3735C19.8496 38.3735 18.6137 34.9938 22.6537 35.029C26.6937 35.0642 27.4316 34.9586 30.3925 34.2193C30.3925 34.2193 38.9798 29.1938 41.1659 25.8229C41.1659 25.8229 44.9476 26.8526 43.6563 29.6426C43.6563 29.6426 40.9168 35.6187 35.1427 38.5055C35.1427 38.5055 30.7799 41.3307 24.7844 41.0139C24.7844 41.0139 20.8089 41.3219 19.8589 38.3823L19.8496 38.3735Z" stroke="#DDA953" stroke-width="2" stroke-miterlimit="10"/>
<path d="M24.7936 38.8488L26.1403 34.8794" stroke="#DDA953" stroke-width="2" stroke-miterlimit="10"/>
<path d="M31.0381 33.8232L30.3002 38.5231" stroke="#DDA953" stroke-width="2" stroke-miterlimit="10"/>
<path d="M34.0266 31.9135L36.4709 35.1611" stroke="#DDA953" stroke-width="2" stroke-miterlimit="10"/>
</g>
<defs>
<clipPath id="clip0_52_84">
<rect width="53" height="50" fill="white"/>
</clipPath>
</defs>
</svg>
